#N canvas 0 0 618 414 10;
#X obj 133 53 adc~;
#X obj 126 348 dac~;
#X obj 241 80 osc~;
#X obj 242 146 *~;
#X obj 242 197 clip~ -1 1;
#X obj 134 306 *~;
#X obj 299 122 hsl 128 15 1 20 1 0 empty empty empty -2 -8 0 10 -262144
-1 -1 1900 1;
#X obj 244 52 hsl 128 15 0.5 25 0 0 empty empty empty -2 -8 0 10 -262144
-1 -1 2700 1;
#X text 292 81 <-- Sine wave (between -1 and 1);
#X text 281 146 <-- Multipled by a positive number X;
#X text 303 160 (between -X and X);
#X text 313 197 <-- Trim at -1 and 1;
#X text 336 225 a square wave as X increases);
#X text 336 211 (the sine wave tends to become;
#X text 382 296 <-- Normalize between 0 and 1;
#X text 240 37 Frequency of the oscillator;
#X text 294 107 Number X (between 1 and 20 \, log);
#X text 276 378 Patch by Pierre Massat \, GuitarExtended \, 2012;
#X text 273 392 (based on a suggestion by "mod" \, Pure Data forum
\, 2011);
#X obj 242 280 *~;
#X obj 242 309 +~;
#X obj 322 263 hsl 128 15 0 0.5 0 0 empty empty empty -2 -8 0 10 -262144
-1 -1 5100 1;
#X floatatom 319 282 5 0 0 0 - - -;
#X obj 305 309 expr 1-$f1;
#X floatatom 305 331 5 0 0 0 - - -;
#X text 405 308 and adjust depth;
#X text 408 37 ("Rate");
#X text 493 107 ("Shape");
#X text 316 246 "Depth";
#X connect 0 0 5 0;
#X connect 2 0 3 0;
#X connect 3 0 4 0;
#X connect 4 0 19 0;
#X connect 5 0 1 0;
#X connect 5 0 1 1;
#X connect 6 0 3 1;
#X connect 7 0 2 0;
#X connect 19 0 20 0;
#X connect 20 0 5 1;
#X connect 21 0 22 0;
#X connect 21 0 19 1;
#X connect 21 0 23 0;
#X connect 23 0 20 1;
#X connect 23 0 24 0;
