#N canvas 1130 144 739 837 10;
#X obj 302 122 vradio 16 1 1 2 empty empty empty 0 -8 0 10 -262144
-1 -1 0;
#X obj 239 168 hsl 128 15 0 50 0 0 empty speed speed -2 -8 0 10 -262144
-1 -1 0 1;
#X obj 240 205 hsl 128 15 0 1 0 0 empty depth depth -2 -8 0 10 -262144
-1 -1 0 1;
#X floatatom 407 168 5 0 0 0 - - -;
#X floatatom 409 203 5 0 0 0 - - -;
#X obj 410 140 bng 15 250 50 0 empty empty RESET 17 7 0 10 -262144
-1 -1;
#X obj 453 70 inlet;
#X obj 547 141 f \$1;
#X obj 618 215 s depth;
#X msg 547 101 0;
#X obj 169 690 clip~ -1 1;
#X obj 366 69 inlet;
#X obj 408 70 inlet;
#X text 323 120 sine wave;
#X text 323 135 square wave;
#X obj 256 842 outlet~;
#X obj 547 215 s speed;
#X obj 168 615 osc~;
#X msg 302 66 0;
#X obj 302 26 loadbang;
#X obj 168 558 spigot;
#X obj 424 559 swap 1;
#X obj 431 593 -;
#X obj 372 658 spigot;
#X obj 328 731 osc~;
#X obj 525 282 outlet;
#X obj 169 647 *~ 1e+012;
#X obj 169 748 *~;
#X floatatom 226 597 5 0 0 0 - - -;
#X floatatom 372 731 5 0 0 0 - - -;
#X floatatom 373 781 5 0 0 0 - - -;
#X obj 328 779 *~;
#X obj 594 284 outlet;
#X obj 269 556 spigot;
#X floatatom 269 601 5 0 0 0 - - -;
#X obj 541 562 swap 1;
#X obj 548 596 -;
#X obj 489 661 spigot;
#X msg 256 64 50;
#X msg 206 64 0.5;
#X obj 78 366 spigot~;
#X obj 93 418 *~ 100000;
#X obj 93 458 clip~ -1 1;
#X obj 78 317 osc~;
#X obj 77 494 *~;
#X obj 78 285 r x;
#X obj 78 599 outlet~;
#X obj 455 297 s x;
#X connect 0 0 20 1;
#X connect 0 0 21 0;
#X connect 0 0 35 0;
#X connect 0 0 33 1;
#X connect 0 0 40 1;
#X connect 1 0 3 0;
#X connect 2 0 4 0;
#X connect 3 0 20 0;
#X connect 3 0 23 0;
#X connect 3 0 25 0;
#X connect 3 0 47 0;
#X connect 4 0 32 0;
#X connect 4 0 33 0;
#X connect 4 0 37 0;
#X connect 4 0 44 1;
#X connect 5 0 9 0;
#X connect 6 0 5 0;
#X connect 7 0 8 0;
#X connect 7 0 16 0;
#X connect 9 0 7 0;
#X connect 10 0 27 0;
#X connect 11 0 3 0;
#X connect 12 0 4 0;
#X connect 17 0 26 0;
#X connect 18 0 0 0;
#X connect 19 0 18 0;
#X connect 19 0 38 0;
#X connect 19 0 39 0;
#X connect 20 0 17 0;
#X connect 20 0 28 0;
#X connect 21 0 22 0;
#X connect 21 1 22 1;
#X connect 22 0 23 1;
#X connect 23 0 24 0;
#X connect 23 0 29 0;
#X connect 24 0 31 0;
#X connect 26 0 10 0;
#X connect 27 0 15 0;
#X connect 30 0 31 1;
#X connect 31 0 15 0;
#X connect 33 0 34 0;
#X connect 34 0 27 1;
#X connect 35 0 36 0;
#X connect 35 1 36 1;
#X connect 36 0 37 1;
#X connect 37 0 30 0;
#X connect 38 0 1 0;
#X connect 39 0 2 0;
#X connect 40 0 44 0;
#X connect 40 1 41 0;
#X connect 41 0 42 0;
#X connect 42 0 44 0;
#X connect 43 0 40 0;
#X connect 44 0 46 0;
#X connect 45 0 43 0;
#X coords 0 -1 1 1 300 150 1 200 100;
