#N canvas 334 66 696 692 10;
#X obj 302 122 vradio 16 1 1 2 empty empty empty 0 -8 0 10 -262144
-1 -1 0;
#X obj 239 168 hsl 128 15 0 50 0 0 empty speed speed -2 -8 0 10 -262144
-1 -1 12700 1;
#X obj 239 211 hsl 128 15 0 1 0 0 empty depth depth -2 -8 0 10 -262144
-1 -1 6350 1;
#X floatatom 407 168 5 0 0 0 - - -;
#X floatatom 406 213 5 0 0 0 - - -;
#X obj 410 140 bng 15 250 50 0 empty empty RESET 17 7 0 10 -262144
-1 -1;
#X obj 453 70 inlet;
#X msg 340 277 0;
#X obj 366 69 inlet;
#X obj 408 70 inlet;
#X text 323 120 sine wave;
#X text 323 135 square wave;
#X msg 302 66 0;
#X obj 302 26 loadbang;
#X obj 539 184 outlet;
#X obj 585 219 outlet;
#X obj 263 385 spigot~;
#X obj 278 437 *~ 100000;
#X obj 278 477 clip~ -1 1;
#X obj 263 336 osc~;
#X obj 262 513 *~;
#X obj 263 304 r x;
#X obj 263 618 outlet~;
#X obj 407 315 s x;
#X msg 249 66 50;
#X msg 199 66 0.5;
#X text 236 181 0;
#X text 354 181 50;
#X text 234 226 0;
#X text 358 224 1;
#X connect 0 0 16 1;
#X connect 1 0 3 0;
#X connect 2 0 4 0;
#X connect 3 0 14 0;
#X connect 3 0 23 0;
#X connect 4 0 15 0;
#X connect 4 0 20 1;
#X connect 5 0 7 0;
#X connect 5 0 13 0;
#X connect 6 0 5 0;
#X connect 7 0 19 1;
#X connect 8 0 3 0;
#X connect 9 0 4 0;
#X connect 12 0 0 0;
#X connect 13 0 12 0;
#X connect 13 0 25 0;
#X connect 13 0 24 0;
#X connect 16 0 20 0;
#X connect 16 1 17 0;
#X connect 17 0 18 0;
#X connect 18 0 20 0;
#X connect 19 0 16 0;
#X connect 20 0 22 0;
#X connect 21 0 19 0;
#X connect 24 0 1 0;
#X connect 25 0 2 0;
#X coords 0 -1 1 1 300 150 1 200 100;
