#N canvas 282 104 670 620 10;
#X obj 182 448 sig~;
#X obj 166 527 +~;
#X obj 181 481 vd~ delayline;
#X floatatom 182 418 5 0 0 0 - - -;
#X obj 198 358 hsl 128 15 0 1000 0 0 empty empty empty -2 -8 0 10 -262144
-1 -1 0 1;
#X obj 188 267 delwrite~ delayline 1000;
#X obj 166 229 inlet~;
#X obj 167 579 outlet~;
#X text 336 353 <-Adjust the delay;
#X obj 103 482 *~;
#X obj -14 465 * -1;
#X obj 198 334 hsl 128 15 0 1 0 0 empty empty empty -2 -8 0 10 -262144
-1 -1 0 1;
#X obj -14 419 - 1;
#X obj 328 527 *~;
#X text 185 316 Original;
#X text 287 316 Processed;
#X text 335 334 <-Mixer;
#X connect 0 0 2 0;
#X connect 1 0 7 0;
#X connect 2 0 13 0;
#X connect 3 0 0 0;
#X connect 4 0 3 0;
#X connect 6 0 5 0;
#X connect 6 0 9 0;
#X connect 9 0 1 0;
#X connect 10 0 9 1;
#X connect 11 0 12 0;
#X connect 11 0 13 1;
#X connect 12 0 10 0;
#X connect 13 0 1 1;
#X coords 0 -1 1 1 300 85 1 180 300;
