#N canvas 143 102 793 734 10;
#X obj 109 237 inlet~;
#X obj 531 361 inlet;
#X obj 385 357 inlet;
#X obj 678 362 inlet;
#X obj 232 621 outlet~;
#X obj 247 354 sig~;
#X obj 246 387 vd~ delayline;
#X floatatom 247 324 5 0 0 0 - - -;
#X obj 249 289 hsl 128 15 0 1000 0 0 empty empty empty -2 -8 0 10 -262144
-1 -1 0 1;
#X obj 26 317 delwrite~ delayline 1000;
#X obj 385 390 LFO~;
#X obj 110 559 *~;
#X obj 247 471 *~;
#X obj 231 577 +~;
#X obj -11 512 - 1;
#X obj -11 542 * -1;
#X obj 250 261 hsl 128 15 0 1 0 0 empty empty empty -2 -8 0 10 -262144
-1 -1 0 1;
#X obj 247 523 *~;
#X text 385 288 <- Adjust the flanger level;
#X text 227 240 Original;
#X text 344 240 Processed;
#X text 384 260 <- Mixer;
#X connect 0 0 11 0;
#X connect 0 0 9 0;
#X connect 1 0 10 1;
#X connect 2 0 10 0;
#X connect 3 0 10 2;
#X connect 5 0 6 0;
#X connect 6 0 12 0;
#X connect 7 0 5 0;
#X connect 8 0 7 0;
#X connect 10 0 12 1;
#X connect 11 0 13 0;
#X connect 12 0 17 0;
#X connect 13 0 4 0;
#X connect 14 0 15 0;
#X connect 15 0 11 1;
#X connect 16 0 14 0;
#X connect 16 0 17 1;
#X connect 17 0 13 1;
#X coords 0 -1 1 1 350 90 1 220 220;
