#N canvas 0 0 860 854 10;
#X obj 237 482 *~;
#X obj 236 402 hilbert~;
#X obj 236 524 -~;
#X obj 282 485 *~;
#X obj 315 452 cos~;
#X obj 366 456 cos~;
#X obj 314 377 phasor~;
#X obj 365 417 +~ -0.25;
#X obj 314 348 sig~;
#X msg 319 62 0;
#X obj 328 226 hsl 128 15 -1000 1000 0 0 empty empty empty -2 -8 0
10 -262144 -1 -1 0 1;
#X floatatom 314 315 5 0 0 0 - - -;
#X obj 319 15 loadbang;
#X obj 236 565 *~;
#X obj 29 498 *~;
#X obj 187 643 +~;
#X obj 44 385 - 1;
#X obj 44 415 * -1;
#X obj 327 190 hsl 128 15 0 1 0 0 empty empty empty -2 -8 0 10 -262144
-1 -1 0 1;
#X text 466 226 <- Adjust the frequency shift;
#X obj 236 340 inlet~;
#X obj 187 704 outlet~;
#X text 307 169 Original;
#X text 419 169 Processed;
#X text 467 187 <- Mixer;
#X connect 0 0 2 0;
#X connect 1 0 0 0;
#X connect 1 1 3 0;
#X connect 2 0 13 0;
#X connect 3 0 2 1;
#X connect 4 0 0 1;
#X connect 5 0 3 1;
#X connect 6 0 4 0;
#X connect 6 0 7 0;
#X connect 7 0 5 0;
#X connect 8 0 6 0;
#X connect 9 0 10 0;
#X connect 10 0 11 0;
#X connect 11 0 8 0;
#X connect 12 0 9 0;
#X connect 13 0 15 1;
#X connect 14 0 15 0;
#X connect 15 0 21 0;
#X connect 16 0 17 0;
#X connect 17 0 14 1;
#X connect 18 0 16 0;
#X connect 18 0 13 1;
#X connect 20 0 14 0;
#X connect 20 0 1 0;
#X coords 0 -1 1 1 350 100 1 300 150;
