#N canvas 143 71 796 670 10;
#X obj 241 507 output~;
#X obj 348 505 wsprobe~;
#X obj 240 184 readsf~;
#X obj 155 88 delay 500;
#X obj 240 32 loadbang;
#X obj 240 74 bng 15 250 50 0 empty empty empty 17 7 0 10 -262144 -1
-1;
#X msg 155 167 start;
#X msg 240 131 open speech.wav;
#X obj 240 458 *~;
#X obj 343 309 LFO~;
#X obj 321 226 adc~;
#X obj 241 304 multiplex~ 0 1;
#X msg 184 246 0;
#X msg 184 282 1;
#X text 87 246 PRE-RECORDED ->;
#X text 99 280 LIVE AUDIO ->;
#X connect 2 0 11 0;
#X connect 2 1 5 0;
#X connect 3 0 6 0;
#X connect 4 0 5 0;
#X connect 4 0 12 0;
#X connect 5 0 3 0;
#X connect 5 0 7 0;
#X connect 6 0 2 0;
#X connect 7 0 2 0;
#X connect 8 0 0 0;
#X connect 8 0 0 1;
#X connect 8 0 1 0;
#X connect 9 0 8 1;
#X connect 10 0 11 1;
#X connect 11 0 8 0;
#X connect 12 0 11 0;
#X connect 13 0 11 0;
