#N canvas 634 60 520 563 10;
#X obj 29 423 inlet~;
#X obj 29 521 outlet~;
#X obj 447 379 sig~;
#X obj 154 396 +~;
#X obj 154 455 *~ 0.5;
#X obj 30 473 *~;
#X obj 154 57 LFO~;
#X obj 161 3 inlet;
#X obj 300 12 inlet;
#X obj 414 6 inlet;
#X connect 0 0 5 0;
#X connect 2 0 3 1;
#X connect 3 0 4 0;
#X connect 4 0 5 1;
#X connect 5 0 1 0;
#X connect 6 0 3 0;
#X connect 6 2 2 0;
#X connect 7 0 6 0;
#X connect 8 0 6 1;
#X connect 9 0 6 2;
#X coords 0 563 1 562 350 200 0;
