#N canvas 981 88 912 803 10;
#X obj 449 303 inlet;
#X obj 245 263 inlet~;
#X obj 595 311 inlet;
#X obj 245 430 *~;
#X obj 244 350 hilbert~;
#X obj 244 472 -~;
#X obj 290 433 *~;
#X obj 323 400 cos~;
#X obj 374 404 cos~;
#X obj 322 325 phasor~;
#X obj 373 365 +~ -0.25;
#X obj 322 296 sig~;
#X msg 322 111 0;
#X obj 325 229 hsl 128 15 -1000 1000 0 0 empty empty empty -2 -8 0
10 -262144 -1 -1 6350 1;
#X floatatom 322 263 5 0 0 0 - - -;
#X obj 322 12 loadbang;
#X obj 166 618 *~;
#X obj 226 636 +~;
#X obj 449 371 LFO~;
#X obj 243 522 *~;
#X obj 181 388 - 1;
#X obj 181 418 * -1;
#X obj 327 190 hsl 128 15 0 1 0 0 empty empty empty -2 -8 0 10 -262144
-1 -1 0 1;
#X obj 242 583 *~;
#X obj 742 312 inlet;
#X obj 225 690 outlet~;
#X text 417 171 Processed;
#X text 465 189 <- Mixer;
#X text 307 170 Original;
#X text 461 228 <- Adjust the vibrato effect;
#X connect 0 0 18 0;
#X connect 1 0 16 0;
#X connect 1 0 4 0;
#X connect 2 0 18 1;
#X connect 3 0 5 0;
#X connect 4 0 3 0;
#X connect 4 1 6 0;
#X connect 5 0 19 0;
#X connect 6 0 5 1;
#X connect 7 0 3 1;
#X connect 8 0 6 1;
#X connect 9 0 7 0;
#X connect 9 0 10 0;
#X connect 10 0 8 0;
#X connect 11 0 9 0;
#X connect 12 0 13 0;
#X connect 13 0 14 0;
#X connect 14 0 11 0;
#X connect 15 0 12 0;
#X connect 16 0 17 0;
#X connect 17 0 25 0;
#X connect 18 0 19 1;
#X connect 19 0 23 0;
#X connect 20 0 21 0;
#X connect 21 0 16 1;
#X connect 22 0 20 0;
#X connect 22 0 23 1;
#X connect 23 0 17 1;
#X connect 24 0 18 2;
#X coords 0 -1 1 1 350 100 1 300 150;
