#N canvas 1435 196 370 583 10;
#X obj 133 441 output~;
#X obj 226 441 wsprobe~;
#X obj 131 174 readsf~;
#X obj 53 102 delay 500;
#X obj 131 22 loadbang;
#X obj 131 64 bng 15 250 50 0 empty empty empty 17 7 0 10 -262144 -1
-1;
#X floatatom 139 254 5 0 0 0 - - -;
#X obj 142 216 hsl 128 15 0 10000 0 0 empty empty centre-frequency
-2 -8 0 10 -262144 -1 -1 12700 1;
#X msg 53 139 start;
#X msg 131 121 open speech.wav;
#X floatatom 147 330 5 0 0 0 - - -;
#X obj 150 292 hsl 128 15 0 100 0 0 empty empty Q -2 -8 0 10 -262144
-1 -1 1000 1;
#X obj 132 377 bp~;
#X connect 2 0 12 0;
#X connect 2 1 5 0;
#X connect 3 0 8 0;
#X connect 4 0 5 0;
#X connect 5 0 3 0;
#X connect 5 0 9 0;
#X connect 6 0 12 1;
#X connect 7 0 6 0;
#X connect 8 0 2 0;
#X connect 9 0 2 0;
#X connect 10 0 12 2;
#X connect 11 0 10 0;
#X connect 12 0 0 0;
#X connect 12 0 0 1;
#X connect 12 0 1 0;
