#N canvas 1173 226 653 582 10;
#X obj 131 503 output~;
#X obj 231 501 wsprobe~;
#X obj 131 174 readsf~;
#X obj 53 102 delay 500;
#X obj 131 64 bng 15 250 50 0 empty empty empty 17 7 0 10 -262144 -1
-1;
#X msg 53 139 start;
#X obj 550 362 sig~;
#X obj 257 379 +~;
#X obj 190 397 *~ 0.5;
#X obj 132 414 *~;
#X obj 257 199 LFO~;
#X obj 211 201 adc~;
#X obj 130 284 multiplex~ 0 1;
#X msg 65 226 0;
#X msg 67 267 1;
#X msg 131 121 open speech.wav \, 1;
#X text -32 226 PRE-RECORDED ->;
#X text -20 260 LIVE AUDIO ->;
#X obj 131 29 loadbang;
#X connect 2 0 12 0;
#X connect 2 1 4 0;
#X connect 3 0 5 0;
#X connect 4 0 3 0;
#X connect 4 0 15 0;
#X connect 5 0 2 0;
#X connect 6 0 7 1;
#X connect 7 0 8 0;
#X connect 8 0 9 1;
#X connect 9 0 0 0;
#X connect 9 0 0 1;
#X connect 9 0 1 0;
#X connect 10 0 7 0;
#X connect 10 2 6 0;
#X connect 11 0 12 1;
#X connect 12 0 9 0;
#X connect 13 0 12 0;
#X connect 14 0 12 0;
#X connect 15 0 2 0;
#X connect 18 0 4 0;
#X connect 18 0 13 0;
