#N canvas 355 147 633 582 10;
#X obj 239 495 wsprobe~;
#X obj 131 174 readsf~;
#X obj 53 102 delay 500;
#X obj 131 22 loadbang;
#X obj 131 64 bng 15 250 50 0 empty empty empty 17 7 0 10 -262144 -1
-1;
#X msg 53 139 start;
#X msg 131 121 open speech.wav;
#X obj 147 369 sig~;
#X obj 131 448 +~;
#X obj 146 402 vd~ delayline;
#X floatatom 147 339 5 0 0 0 - - -;
#X obj 160 300 hsl 128 15 0 1000 0 0 empty empty empty -2 -8 0 10 -262144
-1 -1 12700 1;
#X obj 153 246 delwrite~ delayline 1000;
#X text 158 282 DELAY;
#X obj 132 502 output~;
#X connect 1 0 8 0;
#X connect 1 0 12 0;
#X connect 1 1 4 0;
#X connect 2 0 5 0;
#X connect 3 0 4 0;
#X connect 4 0 2 0;
#X connect 4 0 6 0;
#X connect 5 0 1 0;
#X connect 6 0 1 0;
#X connect 7 0 9 0;
#X connect 8 0 0 0;
#X connect 8 0 14 0;
#X connect 8 0 14 1;
#X connect 9 0 8 1;
#X connect 10 0 7 0;
#X connect 11 0 10 0;
#X coords 0 -1 1 1 150 40 1 150 280;
