#N canvas 1030 172 783 704 10;
#X obj 221 617 output~;
#X obj 329 614 wsprobe~;
#X obj 214 172 readsf~;
#X obj 136 100 delay 500;
#X obj 214 20 loadbang;
#X obj 214 62 bng 15 250 50 0 empty empty empty 17 7 0 10 -262144 -1
-1;
#X msg 136 137 start;
#X msg 214 119 open speech.wav;
#X obj 237 344 sig~;
#X obj 236 377 vd~ delayline;
#X floatatom 237 314 5 0 0 0 - - -;
#X obj 240 282 hsl 128 15 0 1000 0 0 empty empty empty -2 -8 0 10 -262144
-1 -1 12700 1;
#X obj 236 244 delwrite~ delayline 1000;
#X obj 387 312 LFO~;
#X obj 100 549 *~;
#X obj 237 461 *~;
#X obj 221 567 +~;
#X obj -21 502 - 1;
#X obj -21 532 * -1;
#X obj -18 439 hsl 128 15 0 1 0 0 empty empty empty -2 -8 0 10 -262144
-1 -1 12700 1;
#X text -36 410 Original Signal;
#X obj 237 513 *~;
#X text 83 409 Processed Signal;
#X text 376 281 <- Adjust the flanger level;
#X obj 482 566 sig~;
#X floatatom 482 536 5 0 0 0 - - -;
#X obj 485 504 hsl 128 15 0 1 0 0 empty empty empty -2 -8 0 10 -262144
-1 -1 12700 1;
#X obj 468 601 *~;
#X obj 467 645 s~ \$0-feedback;
#X obj 300 197 r~ \$0-feedback;
#X connect 2 0 12 0;
#X connect 2 0 14 0;
#X connect 2 1 5 0;
#X connect 3 0 6 0;
#X connect 4 0 5 0;
#X connect 5 0 3 0;
#X connect 5 0 7 0;
#X connect 6 0 2 0;
#X connect 7 0 2 0;
#X connect 8 0 9 0;
#X connect 9 0 15 0;
#X connect 10 0 8 0;
#X connect 11 0 10 0;
#X connect 13 0 15 1;
#X connect 14 0 16 0;
#X connect 15 0 21 0;
#X connect 16 0 0 0;
#X connect 16 0 0 1;
#X connect 16 0 1 0;
#X connect 16 0 27 0;
#X connect 17 0 18 0;
#X connect 18 0 14 1;
#X connect 19 0 17 0;
#X connect 19 0 21 1;
#X connect 21 0 16 1;
#X connect 24 0 27 1;
#X connect 25 0 24 0;
#X connect 26 0 25 0;
#X connect 27 0 28 0;
#X connect 29 0 12 0;
