#N canvas 499 24 648 694 10;
#X obj 179 615 output~;
#X obj 274 616 wsprobe~;
#X obj 231 186 readsf~;
#X obj 153 114 delay 500;
#X obj 231 76 bng 15 250 50 0 empty empty empty 17 7 0 10 -262144 -1
-1;
#X msg 153 151 start;
#X msg 231 133 open speech.wav;
#X obj 230 401 *~;
#X obj 229 321 hilbert~;
#X obj 229 443 -~;
#X obj 275 404 *~;
#X obj 308 371 cos~;
#X obj 359 375 cos~;
#X obj 307 296 phasor~;
#X obj 358 336 +~ -0.25;
#X obj 307 267 sig~;
#X msg 307 161 0;
#X obj 310 200 hsl 128 15 -1000 1000 0 0 empty empty frequency_shift
-2 -8 0 10 -262144 -1 -1 6350 1;
#X floatatom 307 234 5 0 0 0 - - -;
#X obj 231 36 loadbang;
#X obj 229 484 *~;
#X obj 22 417 *~;
#X obj 180 562 +~;
#X obj 37 304 - 1;
#X obj 37 334 * -1;
#X obj 40 241 hsl 128 15 0 1 0 0 empty empty mixer -2 -8 0 10 -262144
-1 -1 0 1;
#X text 121 255 Processed Signal;
#X text 5 256 Original Signal;
#X connect 2 0 8 0;
#X connect 2 0 21 0;
#X connect 2 1 4 0;
#X connect 3 0 5 0;
#X connect 4 0 3 0;
#X connect 4 0 6 0;
#X connect 5 0 2 0;
#X connect 6 0 2 0;
#X connect 7 0 9 0;
#X connect 8 0 7 0;
#X connect 8 1 10 0;
#X connect 9 0 20 0;
#X connect 10 0 9 1;
#X connect 11 0 7 1;
#X connect 12 0 10 1;
#X connect 13 0 11 0;
#X connect 13 0 14 0;
#X connect 14 0 12 0;
#X connect 15 0 13 0;
#X connect 16 0 17 0;
#X connect 17 0 18 0;
#X connect 18 0 15 0;
#X connect 19 0 4 0;
#X connect 19 0 16 0;
#X connect 20 0 22 1;
#X connect 21 0 22 0;
#X connect 22 0 0 0;
#X connect 22 0 0 1;
#X connect 22 0 1 0;
#X connect 23 0 24 0;
#X connect 24 0 21 1;
#X connect 25 0 23 0;
#X connect 25 0 20 1;
