#N canvas 459 179 627 644 10;
#X obj 214 556 output~;
#X obj 321 552 wsprobe~;
#X obj 188 169 readsf~;
#X obj 110 97 delay 500;
#X obj 188 17 loadbang;
#X obj 188 59 bng 15 250 50 0 empty empty empty 17 7 0 10 -262144 -1
-1;
#X msg 110 134 start;
#X msg 188 116 open speech.wav;
#X obj 227 357 sig~;
#X obj 213 505 +~;
#X floatatom 227 327 5 0 0 0 - - -;
#X obj 230 295 hsl 128 15 0 1000 0 0 empty empty delay -2 -8 0 10 -262144
-1 -1 0 1;
#X obj 411 514 sig~;
#X floatatom 411 484 5 0 0 0 - - -;
#X obj 414 452 hsl 128 15 0 1 0 0 empty empty feedback -2 -8 0 10 -262144
-1 -1 0 1;
#X obj 397 549 *~;
#X obj 227 426 *~;
#X obj 187 489 *~;
#X obj 10 441 - 1;
#X obj 10 471 * -1;
#X obj 13 378 hsl 128 15 0 1 0 0 empty empty mixer -2 -8 0 10 -262144
-1 -1 0 1;
#X text -26 395 Original Signal;
#X text 98 391 Processed Signal;
#X obj 396 593 s~ \$0-feedback;
#X obj 226 390 vd~ \$0-delayline;
#X obj 210 241 delwrite~ \$0-delayline 1000;
#X obj 211 198 r~ \$0-feedback;
#X connect 2 0 17 0;
#X connect 2 0 25 0;
#X connect 2 1 5 0;
#X connect 3 0 6 0;
#X connect 4 0 5 0;
#X connect 5 0 3 0;
#X connect 5 0 7 0;
#X connect 6 0 2 0;
#X connect 7 0 2 0;
#X connect 8 0 24 0;
#X connect 9 0 0 0;
#X connect 9 0 0 1;
#X connect 9 0 1 0;
#X connect 9 0 15 0;
#X connect 10 0 8 0;
#X connect 11 0 10 0;
#X connect 12 0 15 1;
#X connect 13 0 12 0;
#X connect 14 0 13 0;
#X connect 15 0 23 0;
#X connect 16 0 9 1;
#X connect 17 0 9 0;
#X connect 18 0 19 0;
#X connect 19 0 17 1;
#X connect 20 0 18 0;
#X connect 20 0 16 1;
#X connect 24 0 16 0;
#X connect 26 0 25 0;
