#N canvas -8 -8 1920 997 10;
#X text 47 -63 PRE-RECORDED ->;
#X text 203 -64 LIVE AUDIO ->;
#X obj 452 17 liveOrRecorded;
#X obj 891 506 VC-freqshift;
#X obj 485 194 VC-vibrato;
#X obj 1289 205 VC-flanger;
#X obj 893 260 VC-feedback;
#X msg 146 -64 0 0;
#X msg 290 -63 1 1;
#X msg 466 -61 2 2;
#X text 348 -62 CHOOSE YOUR OWN ->;
#X obj 1326 466 VC-ringmod;
#X obj 511 471 VC-tremolo;
#X obj 1126 856 outlet~;
#X obj 1060 270 tgl 15 0 empty empty empty 17 7 0 10 -262144 -1 -1
0 1;
#X obj 1511 238 tgl 15 0 empty empty empty 17 7 0 10 -262144 -1 -1
0 1;
#X obj 687 480 tgl 15 0 empty empty empty 17 7 0 10 -262144 -1 -1 0
1;
#X obj 1113 516 tgl 15 0 empty empty empty 17 7 0 10 -262144 -1 -1
0 1;
#X obj 1478 484 tgl 15 0 empty empty empty 17 7 0 10 -262144 -1 -1
0 1;
#X obj 639 220 tgl 15 0 empty empty empty 17 7 0 10 -262144 -1 -1 0
1;
#X obj 1718 364 spigot~;
#X obj 1412 774 spigot~;
#X obj 326 370 spigot~;
#X obj 1732 544 spigot~;
#X obj 1060 725 spigot~;
#X obj 611 729 spigot~;
#X text 659 220 <- TOGLLE ON/OFF;
#X text 1079 270 <- TOGLLE ON/OFF;
#X text 1532 235 <- TOGLLE ON/OFF;
#X text 709 480 <- TOGLLE ON/OFF;
#X text 1132 516 <- TOGLLE ON/OFF;
#X text 1497 482 <- TOGLLE ON/OFF;
#X obj 483 793 output~;
#X obj 518 731 *~;
#X msg 158 157 3 3;
#X msg 161 192 4 4;
#X msg 158 227 5 5;
#X msg 154 259 6 6;
#X msg 157 289 7 7;
#X obj 1518 160 bng 15 250 50 0 empty empty empty 17 7 0 10 -262144
-1 -1;
#X obj 1050 148 bng 15 250 50 0 empty empty empty 17 7 0 10 -262144
-1 -1;
#X obj 1217 150 bng 15 250 50 0 empty empty empty 17 7 0 10 -262144
-1 -1;
#X obj 1355 146 bng 15 250 50 0 empty empty empty 17 7 0 10 -262144
-1 -1;
#X msg 1433 -47 1;
#X msg 1581 -37 50;
#X msg 1624 -34 350;
#X msg 1696 46 10;
#X msg 1746 43 0.4;
#X msg 1803 38 5;
#X msg 1846 41 1;
#X msg 1176 -46 0.9;
#X msg 1225 -47 100;
#X msg 1268 -44 0.9;
#X text 1018 148 C3PO;
#X text 1179 148 DALEK;
#X msg 1697 6 0.2;
#X msg 1660 -18 1000;
#X text 1313 145 GOLLUM;
#X text 1450 156 UNDERWATER;
#X obj 304 84 inlet;
#X msg 1386 -51 40;
#X connect 2 0 12 0;
#X connect 2 0 3 0;
#X connect 2 0 11 0;
#X connect 2 0 4 0;
#X connect 2 0 6 0;
#X connect 2 0 5 0;
#X connect 3 0 24 0;
#X connect 4 0 22 0;
#X connect 5 0 20 0;
#X connect 6 0 21 0;
#X connect 7 0 2 0;
#X connect 8 0 2 0;
#X connect 9 0 2 0;
#X connect 11 0 23 0;
#X connect 12 0 25 0;
#X connect 14 0 21 1;
#X connect 15 0 20 1;
#X connect 16 0 25 1;
#X connect 17 0 24 1;
#X connect 18 0 23 1;
#X connect 19 0 22 1;
#X connect 20 0 13 0;
#X connect 21 0 13 0;
#X connect 22 0 13 0;
#X connect 22 0 33 1;
#X connect 23 0 13 0;
#X connect 24 0 13 0;
#X connect 24 0 33 0;
#X connect 25 0 13 0;
#X connect 33 0 32 0;
#X connect 33 0 32 1;
#X connect 39 0 46 0;
#X connect 39 0 47 0;
#X connect 39 0 48 0;
#X connect 39 0 49 0;
#X connect 40 0 50 0;
#X connect 40 0 51 0;
#X connect 40 0 52 0;
#X connect 40 0 19 0;
#X connect 40 0 15 0;
#X connect 40 0 16 0;
#X connect 40 0 17 0;
#X connect 40 0 18 0;
#X connect 41 0 60 0;
#X connect 41 0 43 0;
#X connect 41 0 15 0;
#X connect 41 0 17 0;
#X connect 41 0 14 0;
#X connect 41 0 4 4;
#X connect 41 0 19 0;
#X connect 41 0 16 0;
#X connect 42 0 44 0;
#X connect 42 0 45 0;
#X connect 42 0 55 0;
#X connect 42 0 56 0;
#X connect 42 0 15 0;
#X connect 42 0 14 0;
#X connect 42 0 18 0;
#X connect 42 0 17 0;
#X connect 42 0 16 0;
#X connect 43 0 11 2;
#X connect 44 0 4 4;
#X connect 45 0 4 5;
#X connect 46 0 5 3;
#X connect 47 0 5 4;
#X connect 48 0 5 2;
#X connect 49 0 5 1;
#X connect 50 0 6 3;
#X connect 51 0 6 2;
#X connect 52 0 6 1;
#X connect 55 0 4 1;
#X connect 56 0 4 2;
#X connect 59 0 2 0;
#X connect 60 0 11 1;
#X coords 0 -1 1 1 1225 550 1 450 100;
