#N canvas 1075 131 812 796 10;
#X msg 107 41 0;
#X msg 107 77 1;
#X text 10 41 PRE-RECORDED ->;
#X text 22 75 LIVE AUDIO ->;
#X obj 8 413 output~;
#X obj 190 360 VC-tremolo;
#X obj 188 94 liveOrRecorded;
#X obj 350 280 *~;
#X obj 89 629 +~;
#X obj 123 676 VC-freqshift;
#X obj 403 218 VC-vibrato;
#X obj 737 149 bng 15 250 50 0 empty empty empty 17 7 0 10 -262144
-1 -1;
#X obj 358 14 LFO~;
#X obj 434 561 VC-flanger;
#X obj -4 175 VC-feedback;
#X connect 0 0 6 0;
#X connect 1 0 6 0;
#X connect 5 0 8 0;
#X connect 6 0 5 0;
#X connect 6 0 7 0;
#X connect 6 0 9 0;
#X connect 6 0 10 0;
#X connect 6 0 13 0;
#X connect 6 0 14 0;
#X connect 7 0 8 1;
#X connect 9 0 8 0;
#X connect 9 0 8 1;
#X connect 10 0 8 0;
#X connect 10 0 8 1;
#X connect 11 0 10 3;
#X connect 12 0 7 1;
#X connect 12 1 10 1;
#X connect 12 1 13 1;
#X connect 12 1 5 1;
#X connect 12 2 10 2;
#X connect 12 2 13 2;
#X connect 12 2 5 2;
#X connect 14 0 4 0;
#X connect 14 0 4 1;
