#N canvas 1289 403 450 300 10;
#X obj 84 81 adc~;
#X obj 220 123 openpanel;
#X obj 229 158 open \$1;
#X obj 225 209 readsf~;
#X obj 238 254 dac~;
#X obj 220 37 bng 15 250 50 0 empty empty empty 17 7 0 10 -262144 -1
-1;
#X msg 137 156 1;
#X obj 68 156 VFX-delay-vd;
#X obj 98 222 VFX-delay-vd;
#X connect 1 0 2 0;
#X connect 3 0 4 0;
#X connect 3 0 4 1;
#X connect 5 0 1 0;
#X connect 6 0 3 0;
